<?xml version="1.0" encoding="UTF-8"?>
<svg xmlns="http://www.w3.org/2000/svg" viewBox="0 0 512.25 512.07">
  <defs>
    <style>
      .cls-1 {
        fill: #504f4e;
        mix-blend-mode: multiply;
        opacity: .2;
      }

      .cls-2 {
        fill: #ffda44;
      }

      .cls-3 {
        fill: #d80027;
      }

      .cls-4 {
        isolation: isolate;
      }
    </style>
  </defs>
  <g class="cls-4">
    <g id="Camada_2" data-name="Camada 2">
      <g id="Layer_1" data-name="Layer 1">
        <g>
          <path class="cls-2" d="M.25,256.07c0,31.31,5.63,61.31,15.92,89.04l240.08,22.26,240.08-22.26c10.29-27.73,15.92-57.73,15.92-89.04s-5.63-61.31-15.92-89.04l-240.08-22.26-240.08,22.26C5.88,194.76.25,224.76.25,256.07Z"/>
          <g>
            <path class="cls-3" d="M496.33,167.03C460.16,69.54,366.32.07,256.25.07S52.34,69.54,16.17,167.03h480.15Z"/>
            <path class="cls-3" d="M16.17,345.11c36.17,97.48,130.01,166.96,240.08,166.96s203.91-69.47,240.08-166.96H16.17Z"/>
          </g>
          <path class="cls-1" d="M295.5,509c-13.07,2.01-26.28,3.02-39.5,3C114.62,512,0,397.39,0,256S114.62,0,256,0c13.22-.02,26.43.99,39.5,3C185.05,20.14,97.92,107.86,81.71,218.61c-3.61,24.8-3.61,49.98,0,74.78,16.21,110.76,103.34,198.48,213.79,215.61Z"/>
        </g>
      </g>
    </g>
  </g>
</svg>